HIERARCHY
ROOT Hips
{
	OFFSET 0.00000 0.00000 0.00000
	CHANNELS 6 Xposition Yposition Zposition Zrotation Yrotation Xrotation 
	JOINT LHipJoint
	{
		OFFSET 0 0 0
		CHANNELS 3 Zrotation Yrotation Xrotation
		JOINT LeftHip
		{
			OFFSET 1.33213 -1.58186 0.78596
			CHANNELS 3 Zrotation Yrotation Xrotation
			JOINT LeftKnee
			{
				OFFSET 2.29717 -6.31144 0.00000
				CHANNELS 3 Zrotation Yrotation Xrotation
				JOINT LeftAnkle
				{
					OFFSET 2.38430 -6.55082 0.00000
					CHANNELS 3 Zrotation Yrotation Xrotation
					JOINT LeftToe
					{
						OFFSET 0.11863 -0.32594 1.77568
						CHANNELS 3 Zrotation Yrotation Xrotation
						End Site
						{
							OFFSET 0.00000 -0.00000 0.91633
						}
					}
				}
			}
		}
	}
	JOINT RHipJoint
	{
		OFFSET 0 0 0
		CHANNELS 3 Zrotation Yrotation Xrotation
		JOINT RightHip
		{
			OFFSET -1.41575 -1.58186 0.78596
			CHANNELS 3 Zrotation Yrotation Xrotation
			JOINT RightKnee
			{
				OFFSET -2.42012 -6.64922 0.00000
				CHANNELS 3 Zrotation Yrotation Xrotation
				JOINT RightAnkle
				{
					OFFSET -2.47254 -6.79327 0.00000
					CHANNELS 3 Zrotation Yrotation Xrotation
					JOINT RightToe
					{
						OFFSET -0.15219 -0.41813 1.93430
						CHANNELS 3 Zrotation Yrotation Xrotation
						End Site
						{
							OFFSET -0.00000 -0.00000 0.99984
						}
					}
				}
			}
		}
	}
	JOINT lowerback
	{
		OFFSET 0 0 0
		CHANNELS 3 Zrotation Yrotation Xrotation
		JOINT Chest
		{
			OFFSET -0.04717 2.09389 -0.14516
			CHANNELS 3 Zrotation Yrotation Xrotation
			JOINT Chest2
			{
				OFFSET 0.02825 2.09433 -0.11325
				CHANNELS 3 Zrotation Yrotation Xrotation
				JOINT lowerneck
				{
					OFFSET 0 0 0
					CHANNELS 3 Zrotation Yrotation Xrotation
					JOINT Neck
					{
						OFFSET -0.01210 1.39029 0.12448
						CHANNELS 3 Zrotation Yrotation Xrotation
						JOINT Head
						{
							OFFSET 0.09492 1.38365 0.14559
							CHANNELS 3 Zrotation Yrotation Xrotation
							End Site
							{
								OFFSET 0.03402 1.40343 0.03708
							}
						}
					}
				}
				JOINT LeftCollar
				{
					OFFSET 0 0 0
					CHANNELS 3 Zrotation Yrotation Xrotation
					JOINT LeftShoulder
					{
						OFFSET 2.83352 1.10671 -0.20481
CHANNELS 3 Zrotation Xrotation Yrotation
						JOINT LeftElbow
						{
OFFSET 0 -4.771950 -0.000000
CHANNELS 3 Zrotation Xrotation Yrotation
							JOINT LeftWrist
							{
OFFSET 0 -2.984440 0.000000
CHANNELS 3 Zrotation Xrotation Yrotation
								JOINT lhand
								{
									OFFSET 0 0 0
CHANNELS 3 Zrotation Xrotation Yrotation
									JOINT LFingers
									{
OFFSET 0 -0.992280 0.000000
CHANNELS 3 Zrotation Xrotation Yrotation
										End Site
										{
OFFSET 0 -0.800010 0.000000
										}
									}
								}
								JOINT LThumb
								{
OFFSET 0 0.000000 0.000000
CHANNELS 3 Zrotation Xrotation Yrotation
									End Site
									{
OFFSET 0 -0.812220 0.812220
									}
								}
							}
						}
					}
				}
				JOINT RightCollar
				{
					OFFSET 0 0 0
					CHANNELS 3 Zrotation Yrotation Xrotation
					JOINT RightShoulder
					{
						OFFSET -3.23760 1.11106 0.06723
CHANNELS 3 Zrotation Xrotation Yrotation
						JOINT RightElbow
						{
OFFSET 0 -4.620520 0.000000
CHANNELS 3 Zrotation Xrotation Yrotation
							JOINT RightWrist
							{
OFFSET 0 -2.953320 0.000000
CHANNELS 3 Zrotation Xrotation Yrotation
								JOINT rhand
								{
									OFFSET 0 0 0
CHANNELS 3 Zrotation Xrotation Yrotation
									JOINT RFingers
									{
OFFSET 0 -0.990960 0.000000
CHANNELS 3 Zrotation Xrotation Yrotation
										End Site
										{
OFFSET 0 -0.798930 0.000000
										}
									}
								}
								JOINT RThumb
								{
OFFSET 0 0.000000 0.000000
CHANNELS 3 Zrotation Xrotation Yrotation
									End Site
									{
OFFSET 0 -0.811130 0.811130
									}
								}
							}
						}
					}
				}
			}
		}
	}
}
MOTION
Frames: 4
Frame Time: 0.008333333333333333
-3.583100 15.518800 48.839700 -178.498000 -10.271300 -171.568000 0.000000 0.000000 0.000000 -18.430200 -6.049300 -4.813100 1.592800 7.960800 22.595000 -0.282100 -19.672400 -11.327600 0.671300 5.239300 14.592300 0.000000 0.000000 0.000000 13.503100 10.231300 -36.103100 -4.177300 -12.392700 37.135800 -0.700300 10.723300 -15.652400 -0.674200 -5.250300 14.623800 -1.648600 -2.206800 -7.178300 2.013800 -2.925300 1.349900 2.672100 -1.543400 5.625600 -5.902400 -3.774100 2.869900 9.666000 -5.013700 -13.377400 4.169000 -2.980400 -4.032300 0.000000 -0.000000 0.000000 -2.748600 -6.964300 -8.678700 11.967000 -19.755200 2.091100 -15.131700 4.272700 -19.272700 0.000000 0.000000 0.000000 -7.125000 0.000000 0.000000 -39.404900 45.298400 0.346100 0.000000 -0.000000 0.000000 1.046400 2.942200 -3.227300 -13.047400 -21.356700 -2.470500 -0.404800 34.576200 8.663100 0.000000 0.000000 0.000000 7.125000 0.000000 -0.000000 22.369200 37.692500 4.285800
-3.588821 15.515413 48.853369 -178.325002 -10.448193 -171.678429 0.000000 0.000000 0.000000 -18.264860 -6.273621 -4.849591 1.625313 8.037704 22.828532 -0.285722 -19.650116 -11.274074 0.119629 2.229759 6.141152 0.000000 0.000000 0.000000 13.681075 10.147634 -36.047176 -4.168786 -12.381629 37.095870 -0.674289 10.339970 -15.309948 -0.456088 -4.327105 11.999609 -1.477329 -2.259580 -7.058703 2.108643 -3.020853 1.337174 2.667442 -1.587633 5.546507 -6.170924 -3.773440 2.865206 9.841205 -5.008488 -13.260009 4.263317 -2.969810 -3.983225 0.000000 0.000000 0.000000 -2.909875 -6.877814 -9.835306 12.297354 -20.248912 2.204122 -15.008833 3.751586 -18.713435 0.000000 0.000000 0.000000 -7.125000 0.000000 0.000000 -38.982338 44.859014 -0.161546 0.000000 0.000000 0.000000 0.930880 2.863018 -2.741024 -13.115494 -21.456143 -2.495393 -0.702774 34.233053 7.962505 0.000000 0.000000 0.000000 7.125000 0.000000 0.000000 21.927732 37.065178 4.551209
-3.594264 15.510944 48.864490 -178.317497 -10.477787 -171.757212 0.000000 0.000000 0.000000 -18.296382 -6.351866 -4.785546 1.630686 8.050389 22.867144 -0.287367 -19.612691 -11.226091 0.137827 2.392053 6.590431 0.000000 0.000000 0.000000 13.707526 10.022444 -36.074919 -4.179856 -12.395960 37.147549 -0.641372 10.025904 -14.913449 -0.258937 -3.261720 9.009229 -1.513900 -2.290868 -6.962818 2.178568 -3.065631 1.341182 2.758951 -1.612930 5.505047 -6.370156 -3.764944 2.848149 9.947758 -4.994549 -13.143292 4.324549 -2.954166 -3.937271 0.000000 0.000000 0.000000 -3.075901 -6.872993 -10.864834 12.644240 -20.763568 2.325738 -15.171936 2.608234 -18.697793 0.000000 0.000000 0.000000 -7.125000 0.000000 0.000000 -39.100595 44.824574 -0.201195 0.000000 0.000000 0.000000 0.787102 2.798159 -2.081559 -13.212886 -21.598362 -2.531196 -1.115798 33.805691 7.338082 0.000000 0.000000 0.000000 7.125000 0.000000 0.000000 21.423926 36.513092 4.743114
-3.601203 15.507122 48.873907 -178.490835 -10.411466 -171.788656 0.000000 0.000000 0.000000 -18.551940 -6.439017 -4.715168 1.638681 8.068936 22.923673 -0.274286 -19.581638 -11.323980 0.159367 2.572016 7.089484 0.000000 0.000000 0.000000 13.548743 9.851804 -36.121823 -4.183340 -12.400474 37.163728 -0.592645 9.777945 -14.366676 -0.124796 -2.258825 6.222191 -1.733068 -2.301537 -6.913163 2.186407 -3.060296 1.349051 2.892757 -1.617220 5.497391 -6.371009 -3.756899 2.926037 9.900014 -4.987625 -13.175574 4.312891 -2.948545 -3.962284 0.000000 0.000000 0.000000 -3.224624 -6.951295 -11.548518 12.983835 -21.263451 2.447467 -15.632256 1.015046 -19.238228 0.000000 0.000000 0.000000 -7.125000 0.000000 0.000000 -39.775357 45.202325 0.240261 0.000000 0.000000 0.000000 0.682340 2.795585 -1.444578 -13.378123 -21.838712 -2.592340 -1.307337 33.621854 6.745545 0.000000 0.000000 0.000000 7.125000 0.000000 0.000000 21.112550 35.973394 4.963376
